<?xml version="1.0" standalone="no"?><!DOCTYPE svg PUBLIC "-//W3C//DTD SVG 1.1//EN" "http://www.w3.org/Graphics/SVG/1.1/DTD/svg11.dtd"><svg t="1481553053496" class="icon" style="" viewBox="0 0 1024 1024" version="1.1" xmlns="http://www.w3.org/2000/svg" p-id="1836" xmlns:xlink="http://www.w3.org/1999/xlink" width="32" height="32"><defs><style type="text/css"></style></defs><path d="M722.937188 787.919706c-12.767138 0.008055-25.006675-5.099807-33.983947-14.180787L251.800588 333.777094c-19.107412-18.369375-19.706501-48.752747-1.337126-67.861166s48.74872-19.707508 67.861166-1.338133c0.486319 0.471216 0.967604 0.953508 1.43882 1.445868l437.152652 439.91853c18.769103 18.717752 18.810385 49.106159 0.092632 67.874255C747.98011 782.867222 735.720436 787.941857 722.937188 787.919706zM284.53098 786.618827c-26.481743 0.202381-48.113383-21.103032-48.318785-47.584775-0.097667-12.984623 5.074635-25.454734 14.333831-34.558871l440.086678-437.359061c18.835556-18.651299 49.230004-18.501275 67.881303 0.336295 18.651299 18.83757 18.498254 49.227991-0.338309 67.879289L318.090027 772.607195C309.235593 781.591515 297.144066 786.641985 284.53098 786.618827zM504.364385 1023.317341c-278.040682 0-503.436049-225.396374-503.436049-503.436049s225.395367-503.436049 503.436049-503.436049 503.436049 225.396374 503.436049 503.436049C1007.569861 797.825314 782.308408 1023.08576 504.364385 1023.317341zM504.364385 88.687308C266.176708 88.689322 73.085825 281.778191 73.085825 519.965869c0.005034 238.187677 193.095917 431.276547 431.27856 431.27554 238.187677 0 431.27856-193.089876 431.27856-431.27856 0-0.027186 0-0.055378 0-0.081557C935.386193 281.798329 742.444328 88.85747 504.364385 88.604745L504.364385 88.687308z" p-id="1837" fill="#d81e06"></path></svg>